<?xml version="1.0" standalone="no"?>
<!DOCTYPE svg PUBLIC "-//W3C//DTD SVG 20010904//EN"
 "http://www.w3.org/TR/2001/REC-SVG-20010904/DTD/svg10.dtd">
<svg version="1.0" xmlns="http://www.w3.org/2000/svg"
 width="4938.000000pt" height="5903.000000pt" viewBox="0 0 4938.000000 5903.000000"
 preserveAspectRatio="xMidYMid meet">
<metadata>
Created by potrace 1.16, written by Peter Selinger 2001-2019
</metadata>
<g transform="translate(0.000000,5903.000000) scale(0.100000,-0.100000)"
fill="#000000" stroke="none">
<path d="M25389 56049 c-399 -27 -863 -119 -1281 -255 -1454 -472 -2567 -1517
-3052 -2867 -148 -410 -207 -681 -286 -1312 -242 -1948 -411 -3631 -810 -8115
-375 -4211 -590 -6179 -906 -8315 -93 -632 -280 -1788 -310 -1914 -6 -28 -8
-26 -312 444 -765 1180 -1402 2240 -3002 4995 -1136 1955 -1718 2933 -2360
3965 -656 1054 -1457 2263 -2095 3160 -507 713 -1222 1666 -1509 2010 -123
148 -466 492 -601 604 -644 534 -1348 853 -2155 976 -712 108 -1445 47 -2211
-184 -1355 -409 -2630 -1350 -3390 -2502 -688 -1041 -907 -2144 -628 -3149 77
-277 159 -463 659 -1490 1250 -2566 2807 -5422 4735 -8680 941 -1591 1594
-2666 3765 -6205 1067 -1738 1777 -2901 2165 -3540 446 -737 928 -1541 932
-1557 3 -10 -54 -114 -144 -260 -578 -939 -1117 -1989 -1523 -2968 -628 -1510
-935 -2719 -1036 -4075 -22 -284 -25 -973 -6 -1240 39 -548 107 -1012 218
-1485 464 -1973 1597 -3719 3339 -5145 2119 -1735 5130 -2935 8405 -3350 1440
-182 2837 -216 4325 -105 1255 94 2538 324 3730 667 3049 878 5484 1859 7585
3056 1953 1113 3546 2398 4726 3812 94 112 131 159 325 405 41 52 129 169 195
260 1340 1842 2060 3888 2174 6178 14 280 14 963 0 1227 -71 1383 -318 2708
-781 4185 -145 466 -373 1108 -543 1530 -76 190 -79 211 -41 360 179 707 318
1645 370 2500 54 904 5 2091 -114 2726 -387 2071 -1149 3567 -2281 4481 -543
438 -1196 750 -1898 907 -591 132 -1289 166 -1978 96 -432 -44 -967 -138
-1142 -200 -46 -17 -88 -30 -95 -30 -7 0 -32 55 -56 123 -224 628 -644 1203
-1186 1623 -854 663 -2019 978 -3270 883 -564 -43 -1221 -195 -1708 -396 -48
-20 -90 -33 -94 -29 -3 3 8 354 26 779 214 5158 260 8762 161 12502 -20 739
-35 988 -80 1270 -132 828 -458 1546 -971 2139 -97 113 -316 331 -429 428
-731 627 -1687 1002 -2745 1078 -160 11 -634 11 -806 -1z m896 -1663 c612 -86
1126 -297 1535 -630 431 -351 730 -849 854 -1421 56 -261 71 -420 86 -885 74
-2385 77 -5190 10 -8025 -39 -1633 -96 -3245 -206 -5815 l-38 -865 -55 -55
c-699 -691 -1166 -1485 -1421 -2415 -122 -446 -294 -1536 -381 -2415 -12 -124
-23 -227 -25 -228 -1 -2 -92 19 -201 46 -211 54 -415 90 -658 119 -191 22
-778 25 -990 5 -887 -85 -1828 -387 -2740 -880 -575 -310 -1546 -939 -2325
-1505 -57 -42 -105 -75 -107 -74 -1 1 79 373 178 827 207 955 303 1418 393
1900 322 1714 604 3554 820 5360 182 1513 331 3019 636 6445 346 3883 506
5480 741 7390 58 474 61 497 95 670 134 674 491 1260 1039 1705 506 411 1187
682 1900 755 183 19 697 13 860 -9z m-20090 -6566 c403 -26 716 -106 1050
-270 275 -135 505 -301 740 -535 155 -154 220 -231 501 -595 1031 -1332 2103
-2888 3179 -4615 653 -1048 1297 -2131 2430 -4085 1594 -2751 2406 -4089 3281
-5405 531 -800 798 -1179 1663 -2360 270 -368 491 -673 491 -677 0 -4 -91 -76
-202 -160 -658 -493 -1333 -1048 -1973 -1622 -707 -634 -1572 -1503 -2206
-2216 -424 -477 -968 -1141 -1280 -1562 -48 -65 -90 -115 -92 -111 -824 1366
-1570 2588 -2929 4798 -3260 5302 -4587 7552 -6241 10580 -228 418 -450 825
-494 905 -417 757 -1029 1952 -1428 2785 -253 530 -537 1139 -571 1228 -150
384 -133 867 46 1316 288 725 924 1441 1725 1943 627 393 1377 640 2010 661
44 2 94 4 110 5 17 1 102 -3 190 -8z m26500 -11180 c560 -36 1058 -189 1450
-445 137 -89 215 -152 329 -263 319 -312 501 -683 585 -1192 180 -1095 239
-2490 166 -3940 -84 -1671 -309 -3398 -776 -5965 -171 -939 -474 -2535 -505
-2660 -97 -390 -282 -773 -505 -1046 -73 -90 -230 -249 -321 -326 -171 -143
-473 -319 -673 -393 -460 -169 -939 -210 -1460 -124 -343 57 -737 218 -1077
440 -345 224 -633 516 -822 831 -244 404 -408 843 -486 1298 -23 136 -99 726
-129 1005 -88 810 -98 920 -82 920 6 0 11 20 11 46 0 133 53 389 210 1009 129
506 178 725 219 970 169 1007 105 1922 -205 2948 -90 296 -233 678 -375 996
l-72 165 17 80 c57 262 78 392 106 661 75 726 206 1621 295 2020 93 412 250
798 470 1155 292 472 738 905 1246 1210 554 333 1181 537 1819 590 124 10 169
12 345 18 33 1 132 -3 220 -8z m6228 -2395 c319 -30 573 -84 847 -180 1158
-406 1964 -1519 2410 -3330 97 -392 162 -736 185 -970 109 -1101 74 -2235
-101 -3295 -390 -2372 -1452 -4537 -2969 -6055 -786 -787 -1499 -1247 -2292
-1481 -304 -89 -499 -119 -788 -119 -200 0 -245 3 -342 23 -474 96 -864 373
-1173 832 -83 124 -140 218 -140 233 0 8 12 24 26 38 15 13 74 83 131 154 422
526 710 1146 862 1855 52 239 415 2186 571 3055 407 2273 633 4073 715 5690
55 1091 40 2233 -40 3120 -7 82 -12 152 -9 156 4 7 196 86 304 124 115 41 558
117 849 145 320 31 646 33 954 5z m-13288 -4085 c257 -30 567 -113 755 -203
328 -157 581 -429 674 -725 68 -216 146 -575 167 -761 15 -140 7 -499 -16
-716 -80 -753 -319 -1645 -695 -2584 -206 -516 -305 -718 -492 -1000 -278
-419 -687 -846 -1008 -1051 -493 -315 -939 -657 -1380 -1056 -158 -143 -610
-597 -610 -612 0 -5 38 -159 84 -343 502 -1988 594 -3660 286 -5185 -95 -471
-260 -1013 -438 -1434 -22 -52 -37 -98 -34 -102 4 -4 342 -153 752 -331 l745
-324 43 101 c318 741 558 1646 666 2516 55 438 75 735 83 1220 15 967 -81
1934 -303 3043 -31 153 -55 279 -53 281 28 22 293 225 559 426 184 139 411
314 504 389 93 75 179 143 190 152 47 37 377 221 623 346 l262 134 6 -33 c3
-18 8 -62 13 -98 6 -57 10 -65 31 -70 15 -3 28 -16 32 -30 4 -14 26 -90 49
-170 157 -538 434 -1098 759 -1530 142 -189 247 -308 440 -500 251 -250 438
-404 697 -573 595 -388 1253 -627 1964 -713 210 -25 693 -30 905 -9 414 40
811 132 1150 266 72 28 139 53 150 56 17 4 34 -17 100 -119 368 -569 837
-1008 1370 -1280 350 -179 700 -287 1115 -343 155 -22 608 -31 770 -16 609 56
1167 219 1795 525 582 284 1097 633 1675 1135 199 173 695 669 881 881 690
787 1265 1648 1727 2582 70 141 129 257 132 257 8 1 135 -447 200 -699 192
-753 324 -1487 394 -2195 45 -458 51 -590 51 -1200 -1 -620 -7 -752 -61 -1213
-317 -2729 -1704 -5058 -4189 -7034 -2163 -1719 -5179 -3167 -8929 -4288 -924
-276 -1307 -376 -1921 -500 -807 -164 -1798 -292 -2710 -351 -413 -27 -1246
-37 -1665 -20 -1442 58 -2778 271 -4250 677 -1999 552 -3689 1383 -5030 2473
-349 284 -795 703 -1055 991 -1095 1213 -1741 2647 -1900 4215 -99 984 11
2089 321 3205 335 1204 683 2081 1231 3100 376 698 985 1675 1508 2420 1876
2669 4542 5153 7521 7006 757 471 1347 737 1992 898 279 70 506 108 752 126
149 10 489 5 615 -10z"/>
</g>
</svg>
